<svg xmlns="http://www.w3.org/2000/svg" viewBox="0 0 640 900" width="640" height="900" role="img" aria-label="4-4-2 formation pitch"><title>4-4-2 formation pitch</title><rect width="640" height="900" rx="20" fill="#37003C"/><g fill="none" stroke="#00FF87" stroke-opacity="0.28" stroke-width="3"><rect x="40" y="40" width="560" height="820" rx="6"/><line x1="40" y1="450" x2="600" y2="450"/><circle cx="320" cy="450" r="88"/><rect x="150" y="40" width="340" height="132"/><rect x="230" y="40" width="180" height="58"/><rect x="150" y="728" width="340" height="132"/><rect x="230" y="802" width="180" height="58"/></g><circle cx="320" cy="450" r="7" fill="#00FF87" fill-opacity="0.45"/><circle cx="320" cy="770" r="26" fill="#00FF87"/><circle cx="320" cy="770" r="26" fill="none" stroke="#37003C" stroke-width="4"/><circle cx="120" cy="620" r="26" fill="#00FF87"/><circle cx="120" cy="620" r="26" fill="none" stroke="#37003C" stroke-width="4"/><circle cx="253" cy="620" r="26" fill="#00FF87"/><circle cx="253" cy="620" r="26" fill="none" stroke="#37003C" stroke-width="4"/><circle cx="387" cy="620" r="26" fill="#00FF87"/><circle cx="387" cy="620" r="26" fill="none" stroke="#37003C" stroke-width="4"/><circle cx="520" cy="620" r="26" fill="#00FF87"/><circle cx="520" cy="620" r="26" fill="none" stroke="#37003C" stroke-width="4"/><circle cx="120" cy="430" r="26" fill="#00FF87"/><circle cx="120" cy="430" r="26" fill="none" stroke="#37003C" stroke-width="4"/><circle cx="253" cy="430" r="26" fill="#00FF87"/><circle cx="253" cy="430" r="26" fill="none" stroke="#37003C" stroke-width="4"/><circle cx="387" cy="430" r="26" fill="#00FF87"/><circle cx="387" cy="430" r="26" fill="none" stroke="#37003C" stroke-width="4"/><circle cx="520" cy="430" r="26" fill="#00FF87"/><circle cx="520" cy="430" r="26" fill="none" stroke="#37003C" stroke-width="4"/><circle cx="240" cy="250" r="26" fill="#00FF87"/><circle cx="240" cy="250" r="26" fill="none" stroke="#37003C" stroke-width="4"/><circle cx="400" cy="250" r="26" fill="#00FF87"/><circle cx="400" cy="250" r="26" fill="none" stroke="#37003C" stroke-width="4"/><circle cx="240" cy="250" r="38" fill="none" stroke="#04F5FF" stroke-width="5"/></svg>
